<svg width="29" height="29" viewBox="0 0 29 29" fill="none" xmlns="http://www.w3.org/2000/svg">
<path d="M0.164196 8.88586V9.2142C0.164196 14.2775 0.163363 19.3409 0.165863 24.4042C0.165863 24.6534 0.167529 24.9059 0.209196 25.15C0.579196 27.3525 2.31753 28.8259 4.56503 28.83C8.5667 28.8367 12.5692 28.8317 16.5717 28.8317H16.9084C16.85 28.5975 16.7925 28.4192 16.7642 28.2367C16.5342 26.7692 16.3267 25.2984 16.0784 23.8342C15.9567 23.1209 16.0334 22.4684 16.345 21.8084C17.7909 18.7492 19.2125 15.6775 20.6442 12.6117C21.5984 10.5684 23.68 9.8067 25.7242 10.7575C26.7367 11.2275 27.7425 11.7117 28.7409 12.185V8.88586H0.164196ZM11.7367 24.8367C10.6459 24.8425 9.55586 24.8384 8.46503 24.8384C7.3642 24.8375 6.26336 24.8384 5.16253 24.8375C4.7617 24.8375 4.4592 24.6567 4.27253 24.31C4.0917 23.9742 4.11003 23.6267 4.31503 23.3034C4.51503 22.9884 4.82003 22.8442 5.18586 22.8442C7.3767 22.8409 9.56836 22.8375 11.76 22.845C12.3734 22.8475 12.8 23.2834 12.795 23.8559C12.79 24.43 12.3625 24.8334 11.7367 24.8367ZM14.6759 19.4934C14.5559 19.52 14.4284 19.5184 14.305 19.5184C12.7984 19.52 11.2925 19.5192 9.7867 19.5192C8.26003 19.5192 6.73336 19.5225 5.2067 19.5175C4.4892 19.515 4.00503 18.9 4.19003 18.2434C4.31253 17.8084 4.70253 17.525 5.20253 17.5234C6.43836 17.52 7.67503 17.5225 8.91086 17.5225C10.7492 17.5225 12.5875 17.52 14.4259 17.5242C14.9759 17.525 15.4017 17.8992 15.4592 18.41C15.515 18.9109 15.1784 19.3834 14.6759 19.4934ZM15.4384 13.4067C15.3417 13.8142 15.0825 14.0809 14.6634 14.1659C14.5325 14.1925 14.3959 14.1984 14.2617 14.1984C12.7759 14.2009 11.2909 14.2 9.80586 14.2C8.29003 14.2 6.77336 14.2025 5.25753 14.1984C4.58253 14.1959 4.14086 13.7684 4.16003 13.155C4.17586 12.6509 4.55586 12.2509 5.0592 12.21C5.1417 12.2034 5.22503 12.2034 5.30836 12.2034C8.30919 12.2034 11.3109 12.1975 14.3125 12.2134C14.5742 12.2142 14.8717 12.3009 15.09 12.4434C15.4167 12.6567 15.53 13.0184 15.4384 13.4067Z" fill="#FF782D"/>
<path d="M28.7609 4.56587C28.7425 4.14337 28.6992 3.71087 28.5817 3.30754C28.0325 1.41421 26.3725 0.224208 24.3142 0.223374C17.7542 0.221708 11.1942 0.222541 4.63338 0.223374C4.50921 0.223374 4.38421 0.224208 4.25921 0.229208C2.29421 0.305041 0.533378 1.79754 0.255878 3.74671C0.120044 4.69587 0.187544 5.67504 0.165878 6.64004C0.164211 6.70837 0.182544 6.77754 0.192544 6.85587H28.7542C28.7592 6.75837 28.7675 6.66004 28.7684 6.56171C28.7692 5.89587 28.7892 5.23004 28.7609 4.56587ZM5.80838 4.86921C5.26421 4.86671 4.81588 4.42004 4.81421 3.87921C4.81338 3.32921 5.29004 2.86171 5.83588 2.87754C6.38088 2.89254 6.81171 3.34171 6.80588 3.89087C6.80004 4.44254 6.36338 4.87171 5.80838 4.86921ZM9.15254 4.86921C8.59838 4.87337 8.15921 4.44504 8.15254 3.89421C8.14504 3.33171 8.59421 2.87254 9.14838 2.87671C9.68254 2.88087 10.1417 3.34171 10.1434 3.87587C10.145 4.41671 9.69838 4.86504 9.15254 4.86921ZM12.48 4.86837C11.9317 4.87254 11.4809 4.43754 11.4725 3.89504C11.4642 3.33921 11.9217 2.87421 12.4742 2.87754C13.0125 2.88087 13.4659 3.33587 13.4675 3.87421C13.4692 4.41837 13.0259 4.86421 12.48 4.86837Z" fill="#FF782D"/>
<path d="M27.0076 19.4308C26.821 19.8308 26.6435 20.2142 26.4651 20.5967C25.6893 22.2617 24.9101 23.9258 24.1401 25.5933C24.0001 25.8983 23.8001 26.1258 23.5118 26.2992C22.2393 27.0642 20.9735 27.8408 19.7035 28.61C18.9076 29.0925 18.1785 28.7517 18.036 27.8308C17.8043 26.3325 17.571 24.8342 17.3568 23.3333C17.326 23.1183 17.346 22.8625 17.4351 22.6675C18.391 20.5825 19.366 18.5067 20.336 16.4283C20.3443 16.4108 20.3618 16.3967 20.4018 16.3508C22.6018 17.3767 24.791 18.3975 27.0076 19.4308Z" fill="#FF782D"/>
<path d="M28.6609 15.8092C28.4493 16.4225 28.1401 17.0025 27.8626 17.6259C25.6368 16.5884 23.4434 15.565 21.2151 14.5259C21.4893 13.9484 21.7218 13.4042 22.0001 12.8834C22.5501 11.8559 23.7793 11.3934 24.8559 11.8409C25.7843 12.2267 26.6976 12.6525 27.5901 13.1134C28.5476 13.6084 29.0143 14.785 28.6609 15.8092Z" fill="#FF782D"/>
<path d="M28.7667 24.4633C28.7542 26.6867 27.2817 28.4433 25.0842 28.7742C24.3308 28.8875 23.55 28.8192 22.7808 28.8308C22.5325 28.835 22.2842 28.8317 22.035 28.8317C22.0283 28.8092 22.0208 28.7867 22.0142 28.7642C22.7208 28.3342 23.4192 27.89 24.1358 27.4775C24.7092 27.1483 25.1042 26.69 25.38 26.0908C26.4333 23.7992 27.5058 21.5158 28.5717 19.23C28.6133 19.1392 28.6617 19.0508 28.7433 18.8892C28.7558 19.0408 28.7675 19.1167 28.7675 19.1917C28.7692 20.9492 28.7767 22.7058 28.7667 24.4633Z" fill="#FF782D"/>
</svg>
