<svg width="33" height="31" viewBox="0 0 33 31" fill="none" xmlns="http://www.w3.org/2000/svg">
<path d="M15.0342 1.7257C15.035 2.23486 15.0342 2.74403 15.0342 3.25403C15.0333 3.96653 14.8133 4.24736 14.1292 4.4257C12.5325 4.84153 11.0508 5.50403 9.78083 6.5707C9.23083 7.03236 8.75 7.57653 8.27667 8.13486C8.92167 7.68653 9.60167 7.40653 10.3892 7.4557C11.1867 7.50486 11.8525 7.8282 12.37 8.4357C13.1833 9.3907 13.2633 10.7515 12.5775 11.7974C11.9042 12.8249 10.6058 13.2982 9.43333 12.939C8.71583 12.7199 8.1675 12.2815 7.795 11.6307C7.43 10.9907 7.35083 10.3024 7.5025 9.57986C7.46583 9.57153 7.42917 9.56403 7.39333 9.55653C7.215 10.1332 7 10.7024 6.86667 11.289C6.46833 13.0474 6.53083 14.7932 7.0725 16.519C7.305 17.2574 7.17583 17.5707 6.505 17.9607C6.05583 18.2215 5.6075 18.4832 5.15417 18.7365C4.54333 19.0782 3.97167 18.8699 3.72417 18.2132C2.73167 15.574 2.615 12.889 3.31333 10.1632C3.33917 10.0649 3.3625 9.9657 3.4 9.8132C3.20917 9.8132 3.04917 9.8107 2.88917 9.81403C2.52583 9.8207 2.16 9.80986 1.79917 9.84403C1.21167 9.89903 0.765 9.71653 0.5 9.1682V8.66986C1.43833 6.81986 2.3775 4.9707 3.31583 3.12153C3.35333 3.04736 3.3925 2.97403 3.43333 2.90153C3.80833 2.2382 4.57833 2.17403 5.05083 2.77736C5.46083 3.3007 5.85167 3.83903 6.25167 4.36986C6.31333 4.4507 6.37917 4.52736 6.45167 4.61736C7.35 3.66653 8.34083 2.8682 9.45833 2.2282C10.815 1.4507 12.2658 0.939864 13.8075 0.68903C14.5825 0.562364 15.0317 0.947364 15.0342 1.7257Z" fill="#FF782D"/>
<path d="M31.4408 9.84088C30.9217 9.84505 30.4017 9.82171 29.8825 9.81171C29.7817 9.80921 29.6808 9.81088 29.5475 9.81088C29.6458 10.26 29.7458 10.6709 29.8258 11.085C30.2875 13.4892 30.085 15.8409 29.245 18.1384C28.9708 18.8884 28.4075 19.0959 27.7175 18.7017C27.285 18.4542 26.855 18.2025 26.4225 17.9542C25.77 17.5784 25.6333 17.2525 25.8583 16.5367C26.4575 14.63 26.4733 12.7142 25.9483 10.7934C25.835 10.3792 25.6683 9.97921 25.4825 9.57838C25.5967 10.3717 25.4908 11.1117 25.0525 11.7809C24.6083 12.4575 23.9792 12.8717 23.1825 13.0175C21.9592 13.2417 20.7058 12.5884 20.1667 11.4542C19.6225 10.3092 19.9225 8.93505 20.8883 8.11171C21.7442 7.38255 23.2575 7.06171 24.6067 8.16838C24.6283 8.15005 24.6492 8.13171 24.6708 8.11421C24.3783 7.78505 24.1017 7.44005 23.7892 7.13171C22.3983 5.76255 20.71 4.92838 18.8417 4.43255C18.1125 4.23921 17.9042 3.98088 17.9033 3.22588V1.76005C17.905 0.939213 18.3508 0.554213 19.1583 0.692547C21.9042 1.16171 24.2683 2.37171 26.23 4.35588C26.31 4.43671 26.3833 4.52505 26.4833 4.63671C26.8508 4.14921 27.1992 3.68755 27.5475 3.22505C27.66 3.07588 27.7683 2.92338 27.885 2.77755C28.3633 2.17921 29.1508 2.22671 29.5 2.90338C30.4517 4.74838 31.39 6.60005 32.3167 8.45755C32.6608 9.14755 32.215 9.83421 31.4408 9.84088Z" fill="#FF782D"/>
<path d="M26.5665 22.825C24.749 25.0075 22.479 26.48 19.7224 27.1892C19.6624 27.2042 19.6015 27.22 19.5432 27.2392C19.5249 27.245 19.5115 27.2642 19.4782 27.2917C19.6699 27.8617 19.864 28.44 20.0565 29.0175C20.3365 29.8559 19.934 30.4109 19.0424 30.4117C17.3274 30.4134 15.6124 30.4134 13.8974 30.4117C12.9915 30.4109 12.6015 29.8575 12.8907 28.9917C13.0807 28.4234 13.2707 27.8542 13.4624 27.2792C12.9249 27.105 12.399 26.9525 11.8849 26.765C9.67488 25.9584 7.84821 24.6125 6.35488 22.8034C5.90154 22.2534 6.00821 21.6425 6.62404 21.2817C7.09071 21.0092 7.55821 20.74 8.02738 20.4725C8.60404 20.1417 8.98738 20.1967 9.43654 20.6884C10.6999 22.0692 12.2082 23.0625 14.0274 23.5425C14.594 23.6917 15.1799 23.7667 15.7624 23.8442C14.0499 22.9509 13.3915 21.8434 13.7399 20.395C14.0432 19.1317 15.1932 18.24 16.499 18.2567C17.7999 18.2725 18.9232 19.1725 19.2032 20.425C19.5299 21.8842 18.8665 22.9884 17.1149 23.835C18.044 23.78 18.889 23.5984 19.709 23.2942C21.1807 22.7484 22.4182 21.8609 23.4765 20.7117C23.959 20.1884 24.3232 20.1342 24.9332 20.4859C25.3832 20.745 25.834 21.0017 26.2815 21.2642C26.9349 21.6475 27.0465 22.2484 26.5665 22.825Z" fill="#FF782D"/>
</svg>
