<svg width="20" height="20" viewBox="0 0 20 20" fill="none" xmlns="http://www.w3.org/2000/svg">
<g clip-path="url(#clip0_0_2366)">
<rect width="20" height="20" fill="white"/>
<mask id="mask0_0_2366" style="mask-type:luminance" maskUnits="userSpaceOnUse" x="0" y="0" width="20" height="20">
<path d="M20 0.399994H0V19.6H20V0.399994Z" fill="white"/>
</mask>
<g mask="url(#mask0_0_2366)">
<path d="M19.1306 2.93215C19.6327 2.45022 19.6327 1.6473 19.1307 1.16534C18.6568 0.710415 17.9084 0.710434 17.4345 1.16538L10.0001 8.30319L2.56561 1.16538C2.09176 0.710433 1.34334 0.710414 0.86946 1.16534C0.367422 1.64729 0.367441 2.45022 0.869503 2.93216L8.23255 9.99999L0.869507 17.0678C0.367444 17.5497 0.367423 18.3527 0.869463 18.8346C1.34334 19.2895 2.09175 19.2895 2.56561 18.8346L10.0001 11.6968L17.4345 18.8346C17.9084 19.2895 18.6568 19.2895 19.1307 18.8346C19.6327 18.3527 19.6327 17.5497 19.1306 17.0678L11.7676 9.99999L19.1306 2.93215Z" fill="#222222"/>
</g>
</g>
<defs>
<clipPath id="clip0_0_2366">
<rect width="20" height="20" fill="white"/>
</clipPath>
</defs>
</svg>
